<?xml version="1.0" encoding="UTF-8"?>
<svg width="728px" height="729px" viewBox="0 0 728 729" version="1.1" xmlns="http://www.w3.org/2000/svg" xmlns:xlink="http://www.w3.org/1999/xlink">
    <!-- Generator: Sketch 60.1 (88133) - https://sketch.com -->
    <title>6yeBrx01</title>
    <desc>Created with Sketch.</desc>
    <g id="Page-2" stroke="none" stroke-width="1" fill="none" fill-rule="evenodd">
        <g id="ios-Icon" transform="translate(-103.000000, -195.000000)" fill="#000000" fill-rule="nonzero">
            <g id="6yeBrx01" transform="translate(504.767781, 522.386527) rotate(45.000000) translate(-504.767781, -522.386527) translate(304.767781, 62.886527)">
                <g id="Group" transform="translate(200.065746, 459.353433) scale(-1, 1) rotate(-180.000000) translate(-200.065746, -459.353433) translate(0.565746, 0.353433)">
                    <path d="M230.855628,419.466293 C230.375552,459.55262 229.816264,492.826672 229.648285,493.958666 L229.643315,493.983105 C229.481674,494.54885 229.077569,518.067714 228.835107,546.112544 C228.511824,574.238195 227.946078,613.840405 227.541974,634.045615 C227.137869,654.250824 226.491303,689.65035 226.24884,712.684289 L225.763915,754.468661 L238.730714,754.468498 C250.836614,754.463073 251.244031,754.296243 252.192329,750.265978 C253.162179,745.901652 254.29367,745.578369 266.093513,745.578369 C278.135817,745.578369 279.671413,745.982473 283.874097,750.589261 C291.632897,758.913807 290.258943,773.461558 281.045367,779.927225 C277.790391,782.252208 277.582311,782.347755 267.736756,782.351681 L265.594308,782.351553 C253.793659,782.342031 253.44595,782.068079 251.707404,776.694391 L250.656733,773.461558 L238.77607,773.219095 C227.622794,773.057453 226.814586,773.138274 226.006378,774.593049 C225.440632,775.64372 225.27899,782.271029 225.359811,793.0202 L225.602273,809.830934 L237.644578,810.073397 C245.241737,810.235038 250.010166,809.992576 250.656733,809.42683 C251.222479,808.941905 251.949866,807.325488 252.192329,805.789892 C252.515612,804.254296 253.404641,802.63788 254.29367,802.152955 C255.085385,801.757098 260.53044,801.36124 266.450327,801.345248 L267.721802,801.34523 C277.069338,801.355953 278.130919,801.557819 280.560442,803.203626 C291.552076,810.639143 291.794539,828.177264 281.045367,835.693602 C277.836891,837.985371 277.588878,838.110947 268.152845,838.117828 L265.196431,838.117497 C253.785577,838.101524 253.426193,837.773391 251.707404,832.460768 L250.656733,829.227935 L238.614428,828.985472 C230.451524,828.823831 226.24884,829.066293 225.521453,829.71286 C224.713244,830.359427 224.389961,832.703231 224.389961,837.714123 L224.390149,838.194568 C224.397784,845.892319 224.701929,846.403979 236.028161,860.343957 C242.413007,868.183578 242.978753,869.153428 242.978753,872.467083 L242.978753,876.10402 L222.126977,896.955796 C202.810798,916.271976 201.11356,917.726751 198.527293,917.726751 C195.860206,917.726751 194.243789,916.271976 174.927609,896.955796 C162.157917,884.105283 153.995012,875.295812 153.671729,873.921858 C153.348446,872.709545 153.590908,871.012307 154.156654,869.880816 C155.207325,867.860295 167.734554,851.615307 170.805746,848.220832 C172.664625,846.281131 172.664625,845.796206 172.502984,831.65256 L172.260521,817.104809 L159.167546,816.862347 C146.155391,816.700705 145.993749,816.700705 145.993749,818.397943 C145.993749,819.367793 145.266362,821.388314 144.296512,822.843089 L142.599274,825.590997 L131.203536,825.590997 C118.110561,825.590997 116.413323,825.025251 112.129819,819.12533 C106.068256,810.800784 107.280569,799.324225 114.877727,792.211992 C118.100597,789.224942 119.717954,788.837293 130.660477,788.818294 L132.864956,788.818169 C141.293283,788.828371 142.026181,788.979158 143.569124,790.676396 C144.538974,791.646246 145.508824,793.747588 145.751287,795.283184 L146.236212,798.111913 L158.6018,798.111913 C166.926346,798.111913 171.12903,797.788629 171.533134,797.222884 C172.422163,795.687288 171.856417,763.116491 170.886567,761.904178 C170.24,761.176791 167.168809,760.934328 158.278517,761.09597 L146.478674,761.338432 L145.993749,763.439774 C145.670466,764.571266 144.781437,766.510966 143.973228,767.642457 L142.599274,769.82462 L118.433844,769.82462 L114.15034,765.621937 C110.513402,761.904178 109.786015,760.691865 108.896985,756.32754 C107.361389,749.215307 109.220269,742.022252 113.746236,737.496285 C117.416934,733.745789 118.408851,733.461952 130.257512,733.455367 L130.718611,733.455244 C143.892408,733.455244 144.781437,733.778527 145.912929,739.274344 L146.478674,741.941431 L158.116875,742.183894 C166.845525,742.345536 169.835896,742.103073 170.401642,741.375686 C170.724925,740.80994 170.805746,721.817043 170.644105,699.106388 C170.15918,655.86724 170.078359,646.815307 168.704404,561.710966 C167.654938,497.91066 166.880937,449.698435 166.331613,413.359496 L230.929102,413.362952 C230.904434,415.405234 230.87993,417.441143 230.855628,419.466293 Z" id="Combined-Shape"></path>
                    <path d="M300.087766,15.840884 C312.857459,20.9325967 322.151855,25.216101 332.416101,30.9543804 C346.236464,38.7131807 364.340331,54.6348856 374.119653,67.6470403 C382.120916,78.2345699 389.071507,91.6508287 392.546803,103.208208 C393.355012,105.875296 394.324862,109.18895 394.728966,110.482084 C396.345383,115.412155 398.689187,133.839305 398.689187,141.355643 C398.689187,154.933544 395.698816,172.87577 391.172849,186.45367 C388.909866,193.1618 387.455091,196.637096 379.777111,213.124546 C368.138911,238.017364 366.764957,250.867877 374.604578,262.667719 C377.594949,267.274507 377.514128,269.214207 373.87719,272.931965 C371.210103,275.679874 370.725178,275.841515 368.05809,275.27577 C362.966377,274.144278 345.266614,274.467561 342.114601,275.760695 C334.759905,278.831886 323.768272,287.88382 320.777901,293.379637 C314.312234,305.341121 310.917758,315.201263 307.846567,330.718863 C302.189108,359.571902 302.916496,381.635991 309.867088,395.941279 C313.0191,402.164483 319.646409,409.276717 325.142226,412.267088 C330.233938,414.934175 338.15438,416.469771 345.913181,416.227309 C353.833623,416.065667 355.045935,416.793054 355.045935,421.642305 C355.045935,424.471034 354.480189,425.764167 352.136385,428.592897 C347.206314,434.573639 342.92281,444.191318 342.92281,449.525493 C342.92281,452.515864 344.781689,459.708919 348.014522,469.730702 C352.782952,484.682557 354.722652,493.896133 355.854144,507.312391 C356.339069,513.131492 356.581531,519.273875 356.339069,521.051934 C356.177427,522.829992 355.773323,527.760063 355.450039,531.962747 C354.399369,548.531018 348.176164,568.897869 340.417364,580.859353 C339.609155,582.233307 338.639305,583.849724 338.316022,584.49629 C337.022889,587.405841 328.051776,598.235833 322.960063,603.165904 C316.736859,609.227466 301.3809,620.865667 299.683662,620.865667 C299.522021,620.865667 297.58232,621.916338 295.480979,623.12865 C291.844041,625.229992 282.388003,629.351855 275.841515,631.77648 C271.115948,633.471912 264.281202,635.441055 258.032116,637.022775 L258.032248,402.708737 C258.032248,394.424466 251.31652,387.708737 243.032248,387.708737 L157.032248,387.708737 C148.747977,387.708737 142.032248,394.424466 142.032248,402.708737 L142.030819,637.46895 C124.846135,633.143378 120.009383,631.32066 107.330071,625.310813 C82.598895,613.43015 64.818311,596.134491 53.7458564,573.181373 C48.8966062,562.997948 45.9062352,553.380268 43.5624309,539.640726 C41.7843725,529.861405 41.7843725,505.776796 43.5624309,496.401579 C45.2596685,486.86472 48.4116811,474.660773 50.7554854,468.114286 C53.8266772,459.466456 54.7157064,455.506235 54.6348856,449.687135 C54.5540647,442.251618 52.6951855,437.564009 46.3911602,428.997001 C41.8651934,422.935438 41.7035517,422.288871 43.4816101,418.813575 C44.8555643,416.065667 44.6131018,416.146488 52.452723,416.38895 C72.1730071,416.873875 85.3468035,407.337017 91.7316496,387.697553 C93.4288871,382.444199 93.5905288,380.66614 93.509708,363.855406 C93.509708,345.347435 93.4288871,344.458406 89.3878453,325.869613 C87.2056827,315.605367 83.8112076,305.341121 80.3359116,298.309708 C75.8099448,289.257774 64.9799526,279.15517 56.2513023,275.841515 C52.937648,274.548382 35.0762431,274.225099 30.3078137,275.35659 C27.8831886,275.922336 27.3982636,275.679874 24.4887135,272.608682 C20.770955,268.729282 20.5284925,267.355328 23.1147593,263.475927 C28.0448303,255.95959 28.1256511,255.636306 28.0448303,246.665193 C27.9640095,235.269455 25.5393844,227.349013 15.355959,206.173954 C13.335438,201.971271 10.9108129,196.556275 9.9409629,194.13165 L9.69560057,193.5167 C8.78702096,191.234447 7.79921073,188.703183 7.35469613,187.665983 C4.44514601,180.553749 1.93970008,167.703236 0.72738753,154.52944 C-0.161641673,144.91176 -0.161641673,140.547435 0.72738753,130.283189 C2.34380426,111.290292 4.52596685,103.127388 12.4464088,87.044041 C17.295659,77.183899 17.0531965,77.5880032 24.1654301,68.0511444 C41.7035517,44.7747435 62.5553275,29.9845304 98.0356748,15.840884 C109.809392,11.1597676 133.409201,5.42052712 149.60806,3.04756735 C162.565219,58.9832884 165.483363,100.692485 158.363513,128.176502 C149.160906,163.700372 145.531824,192.206478 147.476268,213.694821 L252.252252,215.445012 C248.459034,170.541804 243.969347,137.87923 238.783188,117.457289 C233.956923,98.4525277 237.767194,44.3455177 244.737429,2.62423792 C258.855352,3.95863408 286.312068,10.4668479 300.087766,15.840884 Z M300.972878,214.878218 C292.193916,214.972895 287.946031,216.961105 281.904595,223.683148 C274.73039,231.825341 269.821723,244.038631 266.9898,261.269784 C266.329018,264.962174 265.479441,279.637056 265.007454,293.933233 C264.063479,323.567029 262.55312,338.999325 260.193184,344.869278 C258.210838,349.413758 255.56771,350.265848 255.56771,346.289428 C255.56771,336.916438 243.39044,333.034695 238.57617,340.703505 C236.121837,344.869278 236.216234,349.035051 238.95376,353.390178 C241.691286,357.839981 243.484837,359.354808 248.393504,361.343018 C253.679761,363.520581 257.078069,363.425904 262.741915,360.774958 C275.296774,354.905004 280.205441,339.378032 282.09339,299.613833 C283.226159,275.28193 285.302903,253.600974 287.096454,246.973607 C287.851634,244.322661 289.550788,239.683504 290.96675,236.843204 C294.742647,228.795688 302.105647,223.588471 300.500891,230.121161 C299.840109,232.677431 300.972878,235.517731 303.993596,238.831414 C308.713468,244.038631 318.813994,238.926091 318.813994,231.257281 C318.813994,226.428771 315.887674,220.842848 311.545391,217.529165 C308.430276,215.162248 307.391904,214.878218 300.972878,214.878218 Z M97.5752639,214.171111 C90.5752124,214.171111 89.7238547,214.360367 86.3184243,217.009943 C82.5346126,219.848775 79.1291821,226.188833 79.1291821,230.352454 C79.1291821,235.651607 83.4805655,240.09911 88.6833065,240.193738 C93.3184758,240.193738 98.0482404,235.178468 98.0482404,230.257826 C98.0482404,225.810323 99.0887886,225.526439 102.68341,229.027665 C110.156438,236.408629 113.845654,252.495343 115.075393,284.195634 C116.021346,306.243895 118.197037,330.184712 119.805157,334.348332 C120.278134,335.67312 120.75111,337.660302 120.75111,338.701208 C120.75111,341.729295 126.143042,352.138346 129.453877,355.544944 C133.143094,359.330053 139.008002,362.263513 142.981004,362.168885 C144.589124,362.168885 147.616173,361.411863 149.88646,360.465586 C158.021655,357.248243 162.278443,350.340419 160.859514,342.959456 C160.008156,338.228069 157.359488,336.240887 152.062152,336.240887 C146.291839,336.240887 143.170194,339.079718 143.26479,344.378872 C143.359385,348.921003 142.413432,349.583397 139.953955,346.839193 C136.548524,343.054083 135.129595,334.537587 134.467428,314.949647 C133.521475,289.210903 131.440378,260.822584 129.832258,252.968482 C126.521423,236.503256 118.670014,222.971491 109.021294,216.72606 C105.710459,214.549622 104.102339,214.265739 97.5752639,214.171111 Z M202.571561,274.545461 L158.651302,274.545984 L157.358169,277.711867 C155.903394,281.257655 156.307498,290.755302 158.085556,292.528196 C158.640044,293.024657 176.895579,293.521118 199.079652,293.540681 L205.01827,293.540557 C240.63074,293.527873 241.928769,293.324378 242.704972,291.135208 C243.109077,289.74222 243.513181,286.323067 243.513181,283.53709 C243.513181,274.229396 245.76417,274.529724 202.571561,274.545461 Z" id="Combined-Shape"></path>
                    <path d="M171.663457,189.36322 C171.097711,188.39337 171.097711,185.645462 171.582636,181.523599 C171.98674,177.967482 172.471665,173.118232 172.794949,170.693607 C173.360695,166.005998 174.89629,157.923915 176.835991,150.326756 C177.482557,147.740489 178.533228,143.537806 179.179795,141.03236 C183.705762,122.68603 185.726283,86.3166535 183.705762,59.1608524 C182.170166,38.4707182 179.66472,22.9531176 174.81547,4.2026835 C174.249724,2.26298343 174.330545,1.29313339 175.057932,0.808208366 C176.75517,-0.24246251 222.499763,-0.161641673 223.631255,0.969850039 C223.954538,1.29313339 223.792897,3.39447514 223.065509,5.57663773 C220.479242,14.0628256 217.569692,30.0653512 215.710813,45.8254144 C214.094396,59.6457774 213.690292,77.0222573 214.41768,100.379479 C215.145067,122.120284 216.195738,130.040726 220.479242,147.255564 C221.044988,149.680189 222.095659,153.882873 222.742226,156.549961 C225.409313,167.218311 226.621626,176.108603 226.379163,183.220837 L226.136701,190.494712 L199.304183,190.737174 C173.683978,190.898816 172.390845,190.817995 171.663457,189.36322 Z" id="Path"></path>
                </g>
            </g>
        </g>
    </g>
</svg>